<?xml version="1.0" standalone="no"?>
<!DOCTYPE svg PUBLIC "-//W3C//DTD SVG 20010904//EN"
 "http://www.w3.org/TR/2001/REC-SVG-20010904/DTD/svg10.dtd">
<svg version="1.0" xmlns="http://www.w3.org/2000/svg"
 width="1128.000000pt" height="768.000000pt" viewBox="0 0 1128.000000 768.000000"
 preserveAspectRatio="xMidYMid meet">

<g transform="translate(0.000000,768.000000) scale(0.100000,-0.100000)"
fill="#000000" stroke="none">
<path d="M6635 7519 c-10 -15 3 -25 16 -12 7 7 7 13 1 17 -6 3 -14 1 -17 -5z"/>
<path d="M5688 7503 c-14 -13 -20 -14 -32 -3 -9 7 -16 10 -16 7 0 -3 -3 -12
-6 -21 -5 -12 2 -14 38 -13 36 2 43 5 46 25 4 26 -7 28 -30 5z"/>
<path d="M5791 7511 c-10 -6 -10 -10 -1 -16 13 -8 24 -1 19 14 -3 6 -10 7 -18
2z"/>
<path d="M5840 7500 c0 -5 5 -10 11 -10 5 0 7 5 4 10 -3 6 -8 10 -11 10 -2 0
-4 -4 -4 -10z"/>
<path d="M5410 7477 c0 -11 -6 -17 -17 -15 -12 2 -19 -7 -24 -32 -10 -45 3
-58 29 -30 23 25 35 71 21 85 -6 5 -9 2 -9 -8z"/>
<path d="M5728 7463 c-6 -16 -10 -34 -9 -40 1 -7 -5 -13 -14 -13 -14 0 -19 11
-16 35 1 6 -8 -1 -20 -14 -17 -21 -22 -22 -30 -10 -8 12 -11 11 -20 -3 -5 -10
-20 -18 -31 -18 -17 0 -19 3 -10 12 21 21 14 40 -7 21 -11 -9 -18 -20 -15 -25
3 -4 -2 -8 -11 -8 -9 0 -13 5 -10 10 3 6 -1 10 -9 10 -9 0 -16 -7 -16 -15 0
-8 -7 -15 -15 -15 -9 0 -12 6 -9 15 6 16 -7 21 -20 8 -4 -5 -18 -8 -29 -8 -12
0 -21 -5 -20 -12 4 -18 -33 -34 -61 -27 -13 3 -32 1 -43 -4 -10 -5 -31 -12
-47 -16 -23 -6 -27 -4 -23 9 5 12 1 14 -21 8 -15 -3 -33 -12 -40 -19 -16 -16
-73 -7 -85 13 -7 12 -12 12 -28 -3 -18 -16 -19 -16 -19 4 0 12 6 22 14 22 8 0
16 7 20 15 6 17 -9 21 -19 5 -10 -16 -26 -12 -23 6 2 10 -3 19 -10 21 -7 3
-10 -1 -6 -11 4 -10 1 -16 -9 -16 -9 0 -17 7 -19 15 -2 9 -8 12 -17 6 -9 -6
-11 -18 -6 -41 7 -31 7 -31 22 -11 19 28 33 27 33 -2 0 -29 -18 -47 -39 -40
-9 4 -13 3 -9 -2 14 -15 -14 -35 -49 -35 -20 0 -46 -9 -61 -21 -20 -15 -38
-19 -71 -17 -40 3 -46 1 -52 -22 -5 -19 -7 -14 -8 22 -1 26 -6 50 -11 53 -14
9 -27 -30 -26 -81 l1 -43 -55 -20 c-30 -10 -75 -25 -99 -32 -24 -7 -53 -21
-65 -30 -12 -10 -40 -20 -62 -24 -21 -4 -51 -15 -65 -25 -27 -19 -90 -39 -77
-25 5 5 -1 15 -13 23 -23 16 -23 16 -36 -23 -8 -23 -17 -31 -49 -38 -21 -4
-43 -12 -48 -17 -5 -5 -16 -5 -28 1 -12 6 -24 6 -37 -1 -11 -5 -40 -10 -65
-10 -25 0 -46 -4 -46 -10 0 -5 -11 -20 -25 -34 -22 -22 -24 -28 -13 -45 17
-28 0 -40 -20 -14 -9 12 -25 23 -34 25 -26 5 -76 -33 -90 -67 -14 -33 -56 -74
-77 -75 -17 0 -77 -50 -73 -62 6 -20 -55 5 -71 30 -5 7 -13 10 -18 6 -13 -8
19 -44 38 -44 21 0 5 -20 -24 -31 -15 -6 -23 -15 -20 -23 7 -17 -21 -30 -37
-18 -24 19 -55 20 -71 2 -20 -23 -5 -35 33 -25 l27 7 -29 -27 c-27 -25 -31
-26 -41 -11 -12 16 -35 22 -35 9 0 -3 7 -15 16 -25 16 -16 15 -18 -1 -24 -12
-5 -23 -1 -31 11 -11 15 -17 16 -27 6 -10 -10 -8 -15 7 -27 11 -7 17 -17 13
-20 -4 -4 -13 -1 -22 6 -16 14 -45 7 -45 -11 0 -6 9 -13 20 -16 32 -9 11 -25
-23 -18 -23 4 -28 3 -18 -4 21 -14 -2 -63 -26 -59 -13 2 -19 -5 -21 -24 -3
-28 -27 -39 -34 -16 -3 7 -14 9 -34 4 l-29 -8 23 -18 c23 -19 29 -40 12 -40
-5 0 -10 5 -10 10 0 6 -7 10 -15 10 -8 0 -15 -4 -15 -10 0 -5 -7 -10 -15 -10
-8 0 -19 -9 -25 -19 -14 -27 -13 -30 8 -24 19 4 19 4 13 -49 -2 -16 -31 -7
-45 14 -11 16 -19 19 -26 12 -8 -8 -4 -16 13 -27 19 -12 23 -22 19 -43 l-5
-27 -18 24 c-9 13 -15 27 -13 31 3 4 -2 8 -10 8 -10 0 -14 -10 -14 -29 1 -15
-3 -34 -7 -41 -6 -9 -4 -12 7 -8 11 5 15 -1 15 -22 0 -21 -4 -26 -19 -22 -10
2 -18 -1 -18 -8 0 -8 -12 -11 -37 -7 -21 3 -30 3 -20 0 11 -3 16 -11 13 -20
-3 -8 -6 -17 -6 -19 0 -2 -12 -4 -27 -5 -25 0 -26 -1 -8 -9 17 -7 15 -9 -12
-9 -18 -1 -33 -6 -33 -11 0 -6 3 -9 8 -9 4 1 16 1 27 0 18 -1 18 -2 3 -17 -9
-9 -30 -17 -47 -18 -38 -1 -41 -16 -3 -16 26 -1 26 -1 8 -15 -11 -8 -29 -16
-40 -16 -17 -1 -18 -2 -3 -6 21 -6 12 -23 -12 -23 -10 0 -24 -7 -31 -15 -11
-13 -10 -14 4 -9 11 4 16 1 16 -10 0 -9 -8 -16 -19 -16 -11 0 -23 -5 -27 -11
-4 -8 0 -9 15 -4 11 3 21 3 21 -2 0 -16 -15 -30 -38 -38 -22 -6 -22 -8 -6 -20
16 -11 14 -14 -19 -26 -28 -10 -34 -16 -26 -26 8 -9 5 -15 -15 -24 -24 -11
-24 -13 -8 -25 16 -12 15 -13 -5 -14 -12 0 -25 -4 -28 -10 -3 -5 3 -10 14 -10
31 0 25 -20 -10 -32 -19 -6 -26 -13 -19 -18 8 -5 6 -11 -5 -20 -12 -10 -13
-15 -4 -21 10 -6 10 -11 0 -23 -8 -9 -19 -16 -26 -16 -8 0 -11 -8 -8 -20 3
-13 -1 -22 -11 -26 -12 -5 -14 -10 -6 -19 8 -9 6 -14 -5 -19 -9 -3 -13 -11 -9
-17 3 -6 0 -15 -7 -20 -12 -8 -12 -11 1 -19 15 -10 8 -14 -21 -11 -9 1 -22 -5
-29 -14 -11 -13 -9 -15 10 -15 22 0 22 -1 6 -19 -16 -18 -16 -19 13 -29 17 -6
31 -16 31 -23 0 -6 -7 -9 -15 -5 -8 3 -27 1 -41 -4 -19 -8 -25 -16 -21 -30 4
-16 0 -20 -20 -20 -15 0 -23 -5 -20 -12 2 -7 11 -12 21 -10 21 4 21 -14 0 -22
-15 -6 -15 -8 0 -25 17 -18 16 -20 -4 -26 -13 -4 -19 -12 -16 -21 3 -8 1 -14
-5 -14 -7 0 -9 -12 -7 -30 3 -16 2 -30 -2 -30 -4 0 -12 -26 -18 -57 -7 -32
-14 -67 -16 -78 -3 -11 -7 -35 -10 -54 -6 -37 -16 -54 -16 -28 0 10 -4 17 -8
17 -14 0 -32 -42 -36 -85 -10 -93 -18 -125 -35 -125 -14 -1 -14 -2 -1 -13 20
-16 20 -69 1 -84 -13 -10 -13 -14 -3 -21 14 -9 6 -42 -10 -42 -6 0 -8 -9 -5
-20 3 -10 0 -21 -7 -23 -8 -3 -7 -8 2 -20 11 -13 10 -17 -7 -27 -24 -13 -28
-30 -6 -30 17 0 20 -16 5 -25 -8 -5 -7 -11 1 -21 10 -12 8 -17 -7 -28 -16 -12
-16 -16 -4 -31 12 -15 12 -18 -3 -27 -20 -11 -13 -30 8 -21 8 3 15 0 15 -5 0
-6 -9 -14 -20 -17 -22 -7 -27 -30 -7 -39 10 -5 10 -7 0 -12 -18 -8 -16 -24 2
-24 20 0 19 -10 -2 -26 -17 -12 -17 -14 -1 -30 16 -16 16 -18 0 -31 -11 -8
-13 -16 -7 -20 6 -5 10 -23 11 -40 1 -30 -2 -33 -27 -33 -27 0 -43 -20 -16
-20 6 0 4 -5 -7 -11 -15 -9 -16 -13 -5 -20 22 -14 42 -11 36 6 -11 27 11 25
22 -3 17 -42 11 -101 -11 -108 -10 -3 -15 -10 -12 -16 4 -6 9 -5 15 3 11 19
22 5 20 -28 -1 -15 -2 -36 -2 -45 0 -10 -6 -18 -14 -18 -8 0 -17 -5 -20 -10
-4 -7 2 -9 19 -4 20 5 26 2 26 -9 0 -9 -13 -18 -31 -22 -23 -5 -28 -9 -18 -16
8 -5 21 -6 31 -3 13 4 16 -1 14 -21 -2 -14 2 -32 9 -41 14 -20 7 -64 -11 -71
-20 -7 -17 -20 6 -26 30 -8 24 -23 -18 -40 -20 -9 -27 -14 -14 -11 21 5 27 -6
23 -43 -2 -17 20 -27 29 -13 10 16 30 4 30 -18 0 -15 -2 -15 -10 -2 -9 13 -11
13 -20 0 -15 -22 -12 -31 10 -37 11 -3 19 -10 18 -17 -1 -6 3 -21 10 -33 11
-19 9 -22 -14 -30 -25 -8 -25 -10 -8 -23 14 -12 16 -12 10 -1 -6 9 -4 12 5 9
20 -7 24 -48 5 -48 -21 0 -20 -17 0 -28 11 -6 13 -11 5 -16 -18 -12 -12 -28 8
-21 12 3 21 0 25 -10 3 -9 0 -15 -9 -15 -18 0 -27 -14 -19 -33 3 -9 13 -13 27
-10 18 5 20 3 10 -8 -18 -18 -16 -27 3 -25 9 0 19 -5 21 -11 3 -7 -2 -13 -11
-13 -20 0 -21 -16 -1 -23 9 -4 13 -16 10 -37 -3 -26 -1 -31 13 -26 9 3 4 -5
-13 -19 l-30 -26 30 3 c40 4 47 -26 8 -40 -27 -10 -27 -10 12 -12 l40 -1 -25
-21 c-24 -20 -24 -21 -3 -16 12 3 27 0 33 -7 8 -9 5 -14 -11 -18 -26 -7 -20
-31 9 -35 23 -4 29 -17 12 -27 -16 -10 0 -26 20 -20 11 3 20 0 24 -10 4 -10
-1 -15 -14 -15 -26 0 -26 -20 0 -27 16 -4 18 -9 9 -19 -15 -19 -3 -33 24 -26
21 5 21 4 4 -15 -18 -21 -14 -33 13 -33 13 0 16 -6 12 -27 -4 -22 -2 -25 13
-19 13 5 16 2 13 -12 -3 -12 2 -24 15 -32 19 -12 20 -13 4 -25 -16 -12 -15
-13 8 -19 16 -4 23 -11 19 -18 -4 -6 1 -17 11 -24 14 -10 15 -17 7 -27 -9 -10
-7 -16 8 -27 18 -13 18 -15 2 -27 -16 -13 -15 -14 3 -9 11 3 27 1 35 -4 13 -9
13 -12 -2 -24 -25 -18 -22 -26 7 -26 18 0 25 -5 25 -19 0 -11 -6 -22 -12 -24
-7 -3 0 -4 16 -4 19 2 29 -3 31 -14 2 -10 -4 -16 -12 -15 -9 0 -18 -5 -21 -13
-3 -10 3 -11 28 -6 21 5 30 4 26 -3 -3 -5 1 -12 9 -16 12 -4 12 -9 0 -33 -14
-26 -13 -29 12 -55 16 -17 33 -26 44 -23 19 6 49 -3 49 -16 0 -5 -9 -9 -20 -9
-11 0 -20 -4 -20 -9 0 -17 19 -22 40 -11 25 13 28 -5 3 -19 -16 -9 -16 -12 -3
-20 9 -7 17 -6 21 0 3 6 16 5 35 -2 l29 -12 -30 -7 c-30 -6 -30 -6 -7 -18 12
-7 22 -19 22 -26 0 -8 7 -16 15 -20 8 -3 12 -12 9 -20 -4 -10 2 -15 18 -18 17
-2 22 -8 20 -25 -3 -18 2 -23 18 -23 12 0 20 -5 18 -12 -2 -6 7 -22 19 -35 28
-27 35 -29 26 -6 -4 11 -3 14 5 9 7 -4 10 -17 7 -29 -5 -18 1 -25 26 -36 l32
-14 -24 -19 c-24 -19 -24 -19 -2 -13 31 9 47 -3 32 -21 -6 -8 -9 -18 -5 -21 4
-4 11 -1 16 6 8 14 40 8 40 -8 0 -5 -10 -12 -22 -15 -23 -6 -23 -6 -3 -22 11
-8 19 -20 17 -26 -2 -7 9 -8 31 -4 25 5 38 2 47 -9 10 -12 9 -15 -6 -16 -13 0
-10 -4 10 -11 21 -8 25 -13 15 -19 -12 -7 -12 -10 0 -21 11 -10 14 -10 18 0 7
19 27 14 51 -13 27 -31 27 -33 0 -37 l-23 -3 23 -13 c16 -9 27 -10 35 -3 8 6
18 6 27 1 10 -7 11 -10 3 -10 -23 0 -14 -18 15 -28 15 -6 21 -11 15 -11 -26
-2 -13 -31 13 -31 22 0 24 -3 15 -14 -10 -12 -6 -13 29 -9 45 6 52 -6 18 -31
-16 -12 -18 -16 -5 -12 22 7 46 -3 43 -17 -1 -7 -1 -9 1 -4 8 13 29 8 53 -13
13 -11 29 -20 36 -20 10 0 11 -6 4 -25 -8 -20 -6 -25 6 -25 8 0 12 5 9 10 -3
6 5 10 19 10 18 0 24 -4 20 -14 -3 -9 3 -17 16 -21 16 -5 19 -10 11 -18 -7 -7
-14 -7 -25 2 -10 8 -16 9 -21 2 -3 -6 5 -16 20 -23 22 -10 27 -9 39 7 11 16
18 17 37 8 l24 -12 -22 0 c-13 -1 -23 -5 -23 -10 0 -5 -2 -16 -6 -24 -8 -23
65 -31 88 -10 14 13 21 14 30 5 8 -8 9 -12 1 -12 -6 0 -14 -7 -17 -16 -5 -14
-1 -16 25 -10 25 5 29 3 20 -7 -8 -10 -7 -17 1 -25 17 -17 28 -15 28 4 0 12 5
14 18 9 9 -4 26 -10 38 -12 16 -4 20 -10 16 -29 -2 -14 0 -24 7 -24 6 0 11 6
11 14 0 7 11 16 25 18 29 6 32 0 8 -18 -16 -12 -16 -15 -3 -24 21 -14 30 -12
30 5 0 8 7 15 15 15 8 0 15 -6 15 -14 0 -21 40 -46 73 -46 25 0 28 -2 17 -15
-7 -8 -16 -12 -21 -9 -5 3 -9 1 -9 -4 0 -18 13 -21 34 -7 29 21 42 19 23 -3
-10 -10 -14 -22 -10 -25 11 -12 23 -8 23 8 0 9 9 15 24 15 40 0 56 -11 56 -36
0 -15 6 -24 15 -24 8 0 15 7 15 16 0 13 3 14 15 4 8 -7 12 -17 8 -23 -4 -6 0
-8 10 -4 8 3 27 0 41 -6 19 -9 24 -18 21 -35 -3 -16 1 -22 15 -22 13 0 17 -5
14 -15 -4 -8 -1 -15 6 -15 6 0 8 4 5 10 -3 5 6 15 20 22 23 10 28 10 36 -5 6
-10 16 -14 26 -10 13 5 15 2 9 -12 -4 -11 -2 -22 6 -26 11 -7 11 -12 0 -29
-14 -23 -5 -25 22 -5 12 9 14 15 7 15 -25 0 -4 25 22 25 14 1 24 -2 21 -6 -7
-13 23 -18 35 -6 10 9 11 6 6 -16 -5 -17 -3 -27 4 -27 6 0 11 7 11 16 0 14 7
15 38 10 20 -3 47 -6 60 -6 12 0 22 -6 22 -14 0 -9 8 -12 26 -8 16 3 30 -1 35
-9 6 -10 9 -10 9 -1 0 6 9 12 20 12 12 0 20 -7 20 -16 0 -11 6 -15 18 -12 19
5 34 -6 45 -34 4 -11 17 -18 35 -18 15 0 33 -5 39 -11 8 -8 13 -8 17 0 4 6 2
11 -4 11 -6 0 -21 11 -33 23 -12 13 -29 27 -37 30 -8 3 8 3 35 0 28 -3 54 -12
58 -20 5 -9 16 -11 29 -7 17 5 19 3 13 -15 -5 -15 -2 -21 10 -21 9 0 14 4 10
9 -3 6 19 9 51 8 l56 -1 -26 -19 c-28 -20 -26 -37 5 -37 18 0 19 -1 3 -25 -9
-13 -14 -30 -11 -37 2 -8 10 0 18 17 7 17 19 38 27 48 14 15 13 17 -13 17 -22
0 -26 3 -18 11 7 7 25 9 47 5 32 -6 34 -9 24 -26 -17 -27 -2 -37 22 -15 20 18
77 14 65 -5 -3 -6 0 -10 9 -10 8 0 16 6 19 13 3 9 10 9 33 -3 42 -22 45 -30
23 -62 -16 -22 -17 -28 -6 -28 8 0 22 16 32 36 14 29 21 35 38 30 12 -3 28 -6
35 -6 13 0 11 -13 -5 -57 -12 -30 19 -10 32 21 14 32 17 34 62 34 26 -1 67 2
90 6 l41 7 -8 -34 c-6 -27 -5 -34 5 -30 7 2 16 15 19 29 7 26 26 33 26 9 0
-22 17 -18 23 5 3 12 14 20 26 20 23 0 28 -15 9 -23 -9 -4 -10 -6 -1 -6 6 -1
18 6 27 14 20 21 28 19 22 -5 -3 -11 -9 -29 -12 -40 -3 -11 -1 -20 5 -20 6 0
11 7 11 15 0 13 6 28 27 64 2 2 10 -2 19 -10 13 -11 18 -11 21 -1 5 14 33 16
33 2 0 -5 5 -10 11 -10 5 0 8 4 4 9 -3 6 4 15 15 21 21 11 23 8 21 -25 -1 -18
0 -18 20 5 14 16 23 21 26 13 6 -17 23 -16 23 1 0 7 10 16 23 20 35 9 47 7 47
-8 0 -9 7 -12 19 -9 11 3 17 11 14 19 -5 13 20 22 62 22 11 0 39 3 62 6 23 4
44 2 47 -3 6 -10 2 -15 -44 -50 l-25 -19 27 -11 c15 -5 39 -11 55 -13 25 -3
28 0 27 27 -1 17 -5 38 -9 49 -6 14 -5 17 6 14 8 -3 32 2 53 10 36 14 40 14
51 -1 11 -15 14 -16 25 -2 18 21 29 19 23 -5 -3 -11 -12 -20 -19 -20 -8 0 -14
-8 -14 -17 0 -13 3 -14 12 -5 18 18 28 15 28 -8 0 -11 5 -20 11 -20 6 0 9 7 5
15 -3 9 0 15 9 15 8 0 15 -7 15 -15 0 -21 17 -18 30 5 8 15 7 25 -3 41 -14 20
-14 20 -20 -2 -6 -24 -30 -21 -35 4 -5 24 23 48 44 40 12 -5 15 -3 9 6 -11 19
13 31 70 32 28 0 44 3 37 6 -29 11 25 32 82 30 55 -1 57 -2 51 -25 -5 -19 -2
-23 12 -20 14 2 19 15 21 58 3 56 17 77 39 59 8 -8 17 -5 29 10 13 14 25 19
42 14 15 -4 30 1 45 15 36 32 61 41 104 35 30 -4 44 -11 52 -29 6 -13 18 -24
26 -24 9 0 14 4 11 9 -4 5 -1 11 5 13 15 5 -10 58 -28 58 -8 0 -11 -5 -8 -10
3 -6 -2 -10 -11 -10 -16 0 -16 1 1 20 20 22 64 27 82 9 15 -15 90 20 130 60
36 36 71 48 79 27 8 -20 33 -21 40 -1 4 8 14 15 24 15 11 0 21 4 24 9 3 5 15
7 25 4 28 -7 83 53 75 81 -10 34 -10 38 4 43 7 3 12 -3 12 -15 0 -18 24 -31
56 -32 13 0 74 57 74 69 0 22 53 71 76 71 13 0 24 5 24 10 0 6 15 19 33 30 17
11 26 20 20 20 -7 0 -13 4 -13 10 0 13 29 2 67 -27 17 -12 34 -19 38 -14 6 10
2 14 -42 36 l-26 14 37 22 c25 14 33 24 26 29 -9 6 -7 11 6 18 13 7 21 6 32
-4 17 -18 53 -18 77 0 18 13 18 14 -3 20 -12 4 -32 5 -44 1 -20 -5 -19 -3 5
12 15 10 27 21 27 25 0 5 5 8 10 8 6 0 10 -7 10 -16 0 -9 6 -14 13 -11 13 5
13 11 2 39 -9 23 17 24 35 3 14 -17 30 -11 30 11 0 8 -8 14 -17 14 -13 0 -14
3 -5 12 9 9 15 9 24 0 18 -18 38 -14 38 8 0 11 -7 20 -15 20 -8 0 -15 5 -15
11 0 7 11 9 30 5 30 -5 42 7 18 18 -10 5 -10 7 0 12 6 3 12 12 12 20 0 8 9 14
20 14 13 0 20 7 20 19 0 26 17 36 35 21 8 -6 23 -9 35 -5 22 7 28 35 6 35 -8
0 -17 7 -20 16 -9 24 -1 28 18 9 15 -15 18 -15 46 5 32 23 42 54 14 43 -12 -4
-15 0 -12 22 4 36 22 42 44 16 10 -11 22 -17 27 -14 4 3 -1 16 -13 28 -13 13
-19 29 -15 35 4 7 1 16 -6 21 -11 7 -10 9 4 9 11 0 22 -12 28 -30 14 -37 25
-38 31 -2 3 15 7 34 9 42 2 8 -1 14 -7 13 -7 -1 -14 8 -16 22 -4 20 0 24 28
30 18 3 45 3 61 0 25 -5 26 -4 6 4 -32 14 -19 41 21 42 28 0 29 1 9 9 -32 13
-29 17 7 12 18 -3 30 0 30 7 0 6 -9 11 -20 11 -11 0 -20 4 -20 10 0 14 35 30
65 30 14 0 24 4 21 9 -3 5 -16 7 -27 4 -16 -4 -20 -2 -17 8 2 7 13 16 24 19
10 3 19 12 19 20 0 8 7 15 15 16 34 2 40 4 40 14 0 6 -7 10 -15 10 -8 0 -15 5
-15 10 0 6 9 10 19 10 11 0 23 5 27 12 5 8 2 9 -10 5 -25 -10 -17 23 9 37 11
6 22 12 25 14 2 2 -2 7 -10 12 -12 8 -8 12 17 22 24 9 31 17 28 29 -4 12 1 20
15 24 21 7 21 7 3 27 -18 20 -17 20 4 14 12 -4 24 -2 28 4 3 5 -1 10 -9 10
-27 0 -18 27 12 35 15 4 21 10 14 12 -10 4 -10 9 3 23 11 12 13 20 5 25 -14 9
6 35 27 35 10 0 12 6 8 19 -4 14 0 21 16 26 15 5 18 10 10 18 -16 16 -14 27 6
27 13 0 14 3 5 12 -9 9 -7 14 6 24 10 8 12 13 5 14 -7 0 -13 5 -13 11 0 6 6 9
13 6 16 -6 49 12 42 23 -3 5 -13 7 -23 4 -15 -5 -15 -4 2 10 21 17 14 36 -15
36 -10 0 -19 6 -19 14 0 8 10 14 25 14 35 0 59 20 44 38 -9 11 -6 14 19 14 24
0 30 4 26 15 -4 10 -13 13 -25 10 -11 -4 -19 -2 -19 4 0 6 6 11 14 11 24 0 29
20 10 34 -16 13 -16 14 2 24 10 6 16 14 12 17 -4 4 -1 14 7 21 8 8 12 21 8 29
-3 9 -1 21 5 28 5 6 12 28 16 47 21 131 31 180 37 180 4 0 9 -8 11 -17 6 -32
39 53 40 102 0 25 5 48 9 51 5 3 7 9 4 14 -3 5 -1 27 4 48 4 22 5 46 0 53 -5
8 -1 18 12 27 17 12 18 15 4 29 -14 14 -14 17 1 34 9 10 13 23 9 28 -3 6 -1
11 5 11 7 0 9 8 5 21 -5 14 -1 25 12 35 17 14 17 14 0 25 -18 10 -18 11 0 32
10 11 13 17 7 14 -7 -4 -14 0 -18 8 -3 9 3 19 16 26 21 11 21 12 2 26 -18 13
-18 15 -1 24 21 12 23 33 2 25 -22 -8 -18 12 5 24 24 13 26 30 5 30 -17 0 -20
16 -5 25 16 10 12 25 -5 19 -23 -9 -18 9 7 25 21 13 21 14 4 27 -18 12 -18 14
-1 30 16 16 16 19 1 29 -12 9 -13 14 -3 25 9 10 9 13 0 17 -24 9 -13 23 18 23
26 0 29 3 24 20 -4 13 -2 20 7 20 10 0 9 3 -2 10 -21 14 -30 12 -30 -5 0 -24
-14 -17 -27 12 -16 34 -16 54 0 52 6 -1 23 -1 37 0 20 1 22 3 10 11 -8 5 -22
7 -31 4 -9 -2 -19 2 -23 11 -3 8 0 15 6 15 9 0 9 3 0 12 -7 7 -12 26 -11 43 0
16 3 24 6 18 6 -15 49 -17 58 -4 3 6 -10 13 -30 17 -34 6 -49 24 -21 24 8 0
18 5 22 11 4 8 0 9 -15 4 -12 -4 -21 -2 -21 4 0 6 0 14 0 18 0 4 6 8 13 9 41
3 42 4 24 15 -9 5 -22 7 -27 4 -6 -3 -10 0 -11 7 0 7 -2 22 -4 33 -14 74 -14
80 7 96 l21 17 -21 6 c-24 8 -29 24 -9 31 13 5 15 64 3 83 -10 17 -26 15 -26
-3 0 -8 -4 -15 -10 -15 -16 0 -12 27 5 34 23 8 18 33 -7 41 -14 4 -18 8 -11
11 9 4 8 12 -4 30 -15 24 -15 25 5 31 23 6 28 18 13 27 -5 4 -12 0 -14 -6 -4
-10 -8 -9 -16 2 -15 22 -13 40 4 40 8 0 15 7 15 15 0 8 -7 15 -17 15 -14 0
-14 3 3 22 19 21 19 21 -3 16 -28 -7 -42 11 -19 24 17 10 22 48 6 48 -5 0 -10
-4 -10 -10 0 -5 -7 -7 -15 -3 -14 5 -14 8 1 24 16 18 16 19 -4 19 -24 0 -30
16 -10 22 9 3 8 10 -5 23 -13 12 -15 20 -7 25 15 9 1 40 -19 40 -10 1 -6 6 12
16 33 18 35 26 3 18 -19 -4 -26 -1 -31 15 -3 11 -4 25 -1 30 4 5 0 12 -6 14
-9 4 -5 12 12 27 l25 21 -32 -6 c-38 -8 -43 6 -10 28 l22 16 -32 7 c-33 7 -42
18 -23 29 18 11 11 25 -12 22 -14 -1 -23 4 -26 15 -2 13 2 15 19 11 16 -4 20
-2 17 8 -2 7 -15 16 -29 19 -16 4 -20 8 -11 14 18 11 15 38 -5 35 -32 -3 -37
1 -18 14 19 15 13 37 -10 37 -9 0 -11 7 -7 22 4 16 2 20 -10 15 -21 -8 -30 3
-17 20 9 10 8 13 -5 13 -21 0 -33 29 -16 40 9 6 7 10 -9 15 -11 3 -21 15 -21
25 0 10 -7 21 -16 24 -13 5 -14 9 -5 20 9 11 8 18 -4 30 -9 9 -12 16 -6 16 6
0 11 5 11 10 0 6 -11 10 -24 10 -29 0 -44 18 -22 26 23 9 20 22 -6 26 -13 2
-23 8 -23 13 0 6 -11 21 -25 35 -24 24 -24 25 -5 28 11 2 25 9 30 14 7 7 0 9
-22 5 -34 -7 -41 1 -22 20 8 8 8 13 0 17 -6 4 -11 2 -11 -3 0 -6 -7 -11 -17
-11 -15 0 -15 1 0 18 10 10 17 24 17 31 0 20 -48 61 -64 55 -17 -7 -56 12 -56
27 0 6 9 8 19 4 11 -3 22 -2 25 4 10 15 -24 22 -47 9 -21 -11 -21 -10 -5 14
16 25 15 38 -4 38 -5 0 -6 -4 -3 -10 8 -12 3 -13 -29 0 -32 12 -34 30 -3 23
22 -5 22 -5 2 14 -11 10 -19 26 -17 36 2 12 -3 17 -17 17 -14 0 -19 5 -15 15
4 10 0 15 -15 15 -16 0 -21 6 -21 25 0 14 -6 25 -13 25 -7 0 -17 10 -22 23 -6
13 -19 22 -32 22 -13 0 -23 5 -22 10 0 6 7 9 15 7 11 -2 9 3 -5 17 -12 12 -24
21 -27 21 -8 0 -27 22 -42 49 -10 17 -10 26 -1 37 9 11 8 14 -4 14 -8 0 -17
-6 -20 -12 -3 -10 -9 -9 -22 3 -16 15 -15 17 12 24 27 6 27 7 9 21 -23 16 -50
19 -41 4 3 -6 -1 -7 -9 -4 -21 8 -20 13 7 23 20 8 21 10 3 16 -11 5 -21 3 -26
-5 -9 -14 -40 -7 -40 9 0 5 8 12 18 14 11 3 6 7 -17 12 -29 7 -32 10 -18 20
18 13 13 25 -10 25 -8 0 -11 -4 -8 -10 12 -19 -14 -10 -41 15 -21 19 -24 28
-15 38 16 20 2 28 -36 21 -21 -4 -33 -2 -33 5 0 6 7 11 15 11 8 0 15 5 15 10
0 6 -11 10 -24 10 -19 0 -23 4 -19 20 4 16 0 20 -22 20 -21 0 -25 3 -17 13 8
10 2 12 -29 9 -39 -4 -40 -3 -33 22 4 17 2 26 -6 26 -7 0 -10 7 -6 15 6 17 -5
20 -20 5 -7 -7 -18 -4 -34 10 -13 11 -29 20 -37 20 -9 0 -12 7 -7 25 4 15 2
25 -5 25 -6 0 -11 -4 -11 -10 0 -5 -9 -10 -20 -10 -11 0 -20 7 -20 15 0 9 -7
18 -15 21 -11 5 -12 11 -4 25 12 23 6 24 -24 5 -14 -9 -30 -11 -42 -6 -19 7
-18 9 8 19 15 6 27 17 27 26 0 20 -39 20 -46 0 -4 -8 -13 -15 -22 -15 -13 0
-12 3 3 20 22 24 1 28 -25 5 -15 -14 -18 -14 -30 0 -10 12 -10 15 3 15 8 0 18
7 21 16 5 13 1 14 -23 9 -24 -5 -29 -3 -27 12 0 10 -7 19 -18 21 -11 2 -16 0
-12 -7 4 -7 -1 -11 -13 -11 -11 0 -23 5 -26 11 -4 6 -13 8 -21 5 -10 -4 -14 2
-14 19 0 14 -5 25 -10 25 -6 0 -9 -6 -8 -12 2 -8 -9 -14 -27 -16 -25 -2 -27
-1 -12 8 21 13 23 40 2 40 -8 0 -15 -7 -15 -15 0 -23 -24 -18 -35 8 -7 15 -23
25 -52 31 -47 11 -54 22 -22 34 20 8 20 9 3 23 -10 7 -15 9 -11 3 3 -6 -5 -16
-18 -22 -24 -11 -36 0 -15 13 15 9 12 25 -5 25 -8 0 -15 -7 -15 -15 0 -16 -20
-19 -58 -9 -19 5 -22 12 -18 30 5 20 2 24 -14 24 -13 0 -18 -4 -14 -11 4 -7
-1 -9 -12 -7 -11 2 -18 10 -16 17 1 6 -3 11 -10 9 -20 -4 -58 25 -58 43 0 22
-47 34 -67 17 -12 -10 -17 -9 -28 5 -7 9 -18 17 -24 17 -8 0 -10 8 -6 20 5 15
2 20 -14 20 -11 0 -23 -5 -26 -11 -5 -7 -15 -5 -32 6 -13 9 -31 14 -39 11 -11
-4 -13 0 -8 19 5 20 3 24 -10 19 -8 -3 -14 -11 -13 -17 1 -6 -8 -13 -20 -15
-16 -2 -23 2 -23 12 0 9 6 16 13 16 8 0 14 7 14 15 0 24 -32 13 -35 -13 -4
-26 -33 -30 -56 -6 -10 10 -24 13 -37 9 -14 -5 -25 -2 -30 6 -8 12 -10 12 -18
0 -12 -18 -42 -6 -35 14 4 10 1 15 -12 13 -40 -3 -54 2 -54 22 0 16 -7 20 -34
20 -19 0 -36 6 -39 13 -2 6 -8 9 -12 5 -4 -4 8 -21 27 -38 20 -20 26 -30 15
-26 -10 3 -31 6 -45 6 -22 0 -24 2 -12 11 11 8 7 9 -18 6 -31 -3 -33 -2 -29
20 3 15 0 23 -10 23 -8 0 -12 -4 -8 -9 9 -16 -12 -22 -54 -15 -24 4 -38 11
-34 17 4 6 -3 8 -18 4 -14 -4 -38 -3 -53 1 -25 7 -26 9 -12 21 9 7 16 21 16
31 0 10 7 21 16 24 8 3 12 10 9 16 -6 10 -35 -11 -35 -27 0 -4 -12 -16 -26
-26 -28 -21 -64 -15 -64 10 0 14 -3 13 -21 -3 -20 -18 -22 -18 -34 -1 -6 9
-20 17 -29 17 -9 0 -16 7 -16 15 0 8 5 15 12 15 6 0 8 3 5 7 -4 3 0 15 10 25
13 14 13 18 2 18 -8 0 -23 -17 -34 -38 -16 -29 -26 -36 -45 -34 -47 5 -51 9
-35 39 8 15 12 29 10 31 -9 10 -35 -9 -35 -25 0 -20 -47 -69 -57 -59 -3 3 -1
6 5 6 7 0 12 4 12 8 0 8 -115 6 -137 -3 -16 -5 -17 19 -3 46 6 10 7 19 3 19
-12 0 -35 -16 -34 -24 0 -3 -2 -13 -5 -21 -10 -25 -24 -17 -20 13 2 15 1 21
-1 15 -2 -7 -9 -13 -15 -13 -6 0 -8 -3 -5 -7 10 -9 -13 -33 -30 -33 -9 0 -13
6 -9 15 3 8 2 15 -3 15 -5 0 -14 -7 -21 -15 -7 -8 -17 -15 -22 -15 -7 0 -7 4
0 13 9 11 14 67 6 67 -3 0 -10 -12 -16 -27z m-261 -79 c-3 -3 -12 -4 -19 -1
-8 3 -5 6 6 6 11 1 17 -2 13 -5z m1093 -104 c0 -5 -8 -10 -17 -10 -15 0 -16 2
-3 10 19 12 20 12 20 0z m-1756 -65 c-4 -8 -10 -15 -15 -15 -4 0 -6 7 -3 15 4
8 10 15 15 15 4 0 6 -7 3 -15z m2442 -92 c-8 -8 -36 5 -36 17 0 7 6 7 21 0 11
-7 18 -14 15 -17z m-4098 -888 c6 -13 8 -27 3 -29 -7 -5 -31 34 -31 49 0 15
18 1 28 -20z m2932 -72 c105 -49 174 -129 213 -245 5 -15 19 -18 74 -18 82 0
128 -12 172 -44 48 -35 80 -88 94 -151 9 -46 8 -63 -7 -111 -23 -72 -85 -138
-148 -154 -23 -7 -49 -15 -56 -18 -8 -4 -40 -77 -73 -162 -33 -85 -65 -158
-72 -162 -7 -4 -143 -8 -303 -8 -243 0 -294 2 -304 15 -6 8 -34 81 -60 162
l-49 148 -88 6 c-140 10 -203 47 -249 144 -55 117 -6 257 110 311 40 18 68 24
127 24 l76 0 17 44 c42 111 130 196 241 235 89 32 199 25 285 -16z m2650 -168
c13 -14 19 -25 13 -25 -6 0 -18 11 -27 25 -9 14 -15 25 -13 25 2 0 14 -11 27
-25z m-2877 -985 c76 -60 9 -181 -82 -149 -33 12 -61 48 -61 78 0 75 84 117
143 71z m390 0 c76 -60 9 -181 -82 -149 -33 12 -61 48 -61 78 0 75 84 117 143
71z m-206 -885 c23 -15 23 -19 18 -103 -13 -231 -15 -312 -8 -312 4 1 26 26
47 56 65 89 199 212 269 245 230 107 416 36 502 -193 10 -27 20 -48 24 -48 3
0 24 28 46 61 49 76 139 153 224 192 83 39 224 49 315 23 102 -30 176 -118
209 -252 37 -143 38 -189 27 -933 -6 -399 -13 -745 -16 -769 -7 -55 -38 -72
-133 -72 -78 0 -118 13 -127 43 -3 11 -1 308 6 661 14 711 11 877 -18 1011
-42 194 -46 199 -119 164 -112 -54 -220 -265 -304 -594 -45 -180 -69 -364 -69
-543 0 -120 -2 -133 -21 -150 -24 -23 -69 -32 -161 -32 -55 0 -71 4 -93 23
l-25 22 11 255 c14 318 6 777 -16 870 -18 72 -63 180 -76 180 -16 0 -70 -54
-149 -150 -165 -200 -246 -359 -306 -605 -51 -208 -84 -549 -84 -872 l0 -143
-27 -17 c-20 -13 -47 -18 -103 -18 -56 0 -83 5 -103 18 l-27 17 0 283 c0 320
14 965 31 1377 12 300 12 301 73 320 43 13 154 4 183 -15z m-681 -6 c25 -6 49
-19 54 -28 5 -10 3 -106 -6 -241 -20 -310 -29 -1175 -15 -1485 l10 -250 -24
-22 c-45 -40 -169 -42 -217 -3 -19 15 -24 30 -28 104 -4 47 -9 88 -13 92 -3 4
-29 -14 -58 -40 -100 -90 -254 -145 -406 -146 -96 0 -163 15 -248 55 -198 95
-296 304 -282 600 10 200 56 350 152 494 68 103 135 153 265 197 42 14 84 19
180 18 110 0 134 -3 199 -26 41 -15 100 -43 132 -63 31 -19 59 -35 61 -35 3 0
8 93 11 208 9 271 26 511 39 535 22 42 107 58 194 36z m3989 -1189 c3 -5 1
-10 -4 -10 -6 0 -11 5 -11 10 0 6 2 10 4 10 3 0 8 -4 11 -10z m-6324 -1266
c12 -14 11 -16 -5 -13 -11 2 -21 10 -24 17 -5 17 13 15 29 -4z m1577 -16 c7
-7 12 -43 12 -93 0 -50 -5 -86 -12 -93 -7 -7 -35 -12 -62 -12 l-51 0 0 105 0
105 51 0 c27 0 55 -5 62 -12z m167 -93 l0 -105 -25 0 -25 0 0 105 0 105 25 0
25 0 0 -105z m213 93 c18 -18 15 -48 -4 -48 -9 0 -23 8 -30 18 -22 30 -35 1
-32 -69 2 -49 7 -64 18 -64 9 0 16 11 18 28 2 15 -1 27 -7 27 -6 0 -11 7 -11
15 0 10 10 15 30 15 29 0 30 -1 30 -48 0 -57 -12 -72 -60 -72 -53 0 -60 13
-60 105 0 92 7 105 60 105 20 0 41 -5 48 -12z m167 -93 l0 -105 -25 0 -25 0 0
105 0 105 25 0 25 0 0 -105z m235 85 c0 -15 -7 -20 -26 -20 l-27 0 5 -85 c4
-84 4 -85 -19 -85 -22 0 -23 3 -23 85 0 78 -2 85 -20 85 -13 0 -20 7 -20 20 0
18 7 20 65 20 58 0 65 -2 65 -20z m207 -2 c-3 -12 1 -52 8 -90 19 -90 19 -98
-5 -98 -13 0 -20 7 -20 19 0 36 -40 35 -53 -1 -5 -15 -47 -27 -47 -14 0 2 9
39 20 82 10 43 17 89 14 101 -6 22 -3 23 41 23 44 0 47 -2 42 -22z m165 -63
l-5 -85 37 0 c29 0 36 -4 36 -20 0 -17 -7 -20 -52 -20 l-53 0 0 105 c0 101 1
105 21 105 21 0 22 -3 16 -85z m367 55 c5 -16 14 -30 18 -30 5 0 14 14 20 30
8 22 18 30 35 30 23 0 23 -2 23 -105 l0 -105 -27 0 c-27 0 -27 1 -23 48 3 26
3 41 -1 35 -3 -7 -13 -13 -23 -13 -9 0 -23 6 -30 13 -11 10 -13 4 -7 -35 5
-46 5 -48 -19 -48 l-25 0 0 105 c0 104 0 105 24 105 18 0 27 -8 35 -30z m309
-47 c7 -43 15 -90 19 -105 4 -24 2 -28 -16 -28 -14 0 -21 6 -21 19 0 27 -31
36 -47 15 -7 -10 -13 -21 -13 -26 0 -4 -9 -8 -20 -8 -24 0 -24 -4 -1 93 10 43
16 87 14 98 -5 16 0 19 34 19 l39 0 12 -77z m242 58 c13 -26 13 -74 -1 -88 -9
-9 -9 -20 0 -44 16 -48 14 -59 -14 -59 -21 0 -25 5 -25 28 0 34 -14 57 -30 47
-8 -5 -10 -19 -5 -41 5 -31 4 -34 -20 -34 l-25 0 0 105 0 105 55 0 c43 0 56
-4 65 -19z m155 -21 c-4 -22 -3 -40 2 -40 18 0 33 24 33 52 0 23 4 28 25 28
20 0 25 -5 25 -27 0 -14 -7 -34 -16 -44 -15 -16 -15 -20 0 -41 9 -12 16 -39
16 -60 0 -34 -3 -38 -26 -38 -24 0 -26 2 -20 34 4 21 2 37 -4 41 -16 10 -37
-24 -32 -51 4 -20 0 -24 -19 -24 -24 0 -24 1 -24 105 0 103 0 105 23 105 22 0
23 -3 17 -40z m305 20 c0 -16 -7 -20 -36 -20 -31 0 -35 -3 -32 -22 2 -15 11
-24 26 -26 12 -2 22 -10 22 -17 0 -7 -10 -15 -22 -17 -15 -2 -24 -11 -26 -25
-3 -20 1 -23 32 -23 29 0 36 -4 36 -20 0 -18 -7 -20 -57 -20 l-58 0 0 105 0
105 58 0 c50 0 57 -2 57 -20z m230 0 c0 -15 -7 -20 -26 -20 l-27 0 5 -85 c4
-84 4 -85 -19 -85 -22 0 -23 3 -23 85 0 78 -2 85 -20 85 -13 0 -20 7 -20 20 0
18 7 20 65 20 58 0 65 -2 65 -20z m-4315 -10 c3 -5 1 -10 -4 -10 -6 0 -11 5
-11 10 0 6 2 10 4 10 3 0 8 -4 11 -10z m5569 -207 c3 -10 9 -24 12 -30 3 -8
-1 -13 -10 -13 -9 0 -16 3 -16 8 0 4 -3 17 -6 30 -7 26 11 30 20 5z m-5374
-78 c7 -9 8 -15 2 -15 -5 0 -12 7 -16 15 -3 8 -4 15 -2 15 2 0 9 -7 16 -15z
m620 -505 c-6 -11 -15 -20 -20 -20 -14 0 -12 6 6 24 21 22 27 20 14 -4z m675
-330 c3 -5 -1 -10 -9 -10 -8 0 -18 5 -21 10 -3 6 1 10 9 10 8 0 18 -4 21 -10z
m105 -54 c0 -3 -4 -8 -10 -11 -5 -3 -10 -1 -10 4 0 6 5 11 10 11 6 0 10 -2 10
-4z m2316 -32 c-4 -9 -9 -15 -11 -12 -3 3 -3 13 1 22 4 9 9 15 11 12 3 -3 3
-13 -1 -22z m-86 -38 c0 -2 -7 -7 -16 -10 -8 -3 -12 -2 -9 4 6 10 25 14 25 6z
m-1660 -20 c0 -2 -7 -7 -16 -10 -8 -3 -12 -2 -9 4 6 10 25 14 25 6z"/>
<path d="M5812 6122 c-96 -35 -180 -122 -207 -216 l-16 -53 -99 -6 c-75 -4
-108 -10 -137 -27 -118 -66 -123 -239 -10 -304 44 -25 140 -43 175 -32 20 7
20 9 -12 104 l-33 97 -59 3 c-90 3 -106 9 -102 35 3 21 7 22 102 22 l99 0 25
-72 24 -73 449 0 c502 0 475 4 445 -70 -18 -45 -16 -46 22 -26 87 45 122 138
87 224 -36 85 -83 111 -215 119 l-100 6 -15 49 c-27 94 -95 172 -182 210 -66
29 -175 33 -241 10z"/>
<path d="M5647 5345 l65 -195 266 2 267 3 72 185 c40 102 73 188 73 193 0 4
-182 7 -404 7 l-404 0 65 -195z"/>
<path d="M5777 4963 c-13 -12 -7 -41 10 -47 21 -8 48 17 40 38 -6 16 -38 22
-50 9z"/>
<path d="M6167 4963 c-13 -12 -7 -41 10 -47 21 -8 48 17 40 38 -6 16 -38 22
-50 9z"/>
<path d="M4658 3326 c-97 -51 -176 -169 -232 -344 -91 -288 -22 -652 138 -734
110 -56 233 -2 344 151 93 128 143 291 143 471 0 174 -40 291 -128 376 -88 83
-196 116 -265 80z"/>
<path d="M4533 1623 c-20 -7 -17 -129 3 -137 27 -10 34 3 34 69 0 62 -9 78
-37 68z"/>
<path d="M5534 1557 c-8 -21 2 -35 16 -21 5 5 6 15 0 24 -8 12 -10 12 -16 -3z"/>
<path d="M6375 1557 c-4 -10 -5 -21 -1 -24 10 -10 18 4 13 24 -4 17 -4 17 -12
0z"/>
<path d="M6603 1623 c-7 -3 -13 -16 -13 -29 0 -19 5 -24 25 -24 20 0 25 5 25
24 0 25 -15 36 -37 29z"/>
<path d="M5942 7465 c-6 -14 -8 -25 -3 -25 4 0 13 11 19 25 6 14 8 25 3 25 -4
0 -13 -11 -19 -25z"/>
<path d="M5983 7465 c-9 -20 -8 -25 3 -25 8 0 14 4 14 9 0 5 3 16 6 25 10 26
-10 18 -23 -9z"/>
<path d="M6136 7464 c-8 -22 -8 -24 8 -24 7 0 16 9 19 20 6 24 -18 28 -27 4z"/>
<path d="M5465 7460 c-3 -5 3 -10 14 -10 12 0 21 5 21 10 0 6 -6 10 -14 10 -8
0 -18 -4 -21 -10z"/>
<path d="M6245 7459 c-11 -16 -1 -19 13 -3 7 8 8 14 3 14 -5 0 -13 -5 -16 -11z"/>
<path d="M6442 7425 c-14 -29 2 -34 18 -6 12 24 13 31 2 31 -5 0 -14 -11 -20
-25z"/>
<path d="M6625 7440 c3 -5 13 -10 21 -10 8 0 12 5 9 10 -3 6 -13 10 -21 10 -8
0 -12 -4 -9 -10z"/>
<path d="M6290 7430 c0 -5 5 -10 10 -10 6 0 10 5 10 10 0 6 -4 10 -10 10 -5 0
-10 -4 -10 -10z"/>
<path d="M4870 7403 c0 -24 16 -48 23 -36 8 13 -3 53 -14 53 -5 0 -9 -8 -9
-17z"/>
<path d="M6480 7400 c-7 -13 -21 -20 -40 -20 -16 0 -32 -4 -35 -10 -4 -6 9
-10 32 -10 32 0 42 5 56 30 10 17 14 30 8 30 -6 0 -15 -9 -21 -20z"/>
<path d="M6543 7405 c-9 -25 2 -27 22 -5 17 18 17 20 1 20 -9 0 -19 -7 -23
-15z"/>
<path d="M6844 7403 c-7 -11 -7 -22 -2 -28 5 -5 15 -19 23 -30 12 -18 15 -18
32 -4 10 9 26 19 36 22 30 11 19 35 -20 46 -51 14 -56 14 -69 -6z"/>
<path d="M4930 7396 c0 -8 5 -18 10 -21 6 -3 10 3 10 14 0 12 -4 21 -10 21 -5
0 -10 -6 -10 -14z"/>
<path d="M6310 7389 c0 -5 5 -7 10 -4 6 3 10 8 10 11 0 2 -4 4 -10 4 -5 0 -10
-5 -10 -11z"/>
<path d="M6765 7370 c4 -6 11 -8 16 -5 14 9 11 15 -7 15 -8 0 -12 -5 -9 -10z"/>
<path d="M6765 7310 c-8 -13 5 -13 25 0 13 8 13 10 -2 10 -9 0 -20 -4 -23 -10z"/>
<path d="M6816 7312 c-9 -14 12 -35 28 -29 23 9 20 37 -3 37 -11 0 -22 -4 -25
-8z"/>
<path d="M6880 7295 c-10 -12 -10 -15 4 -15 9 0 16 7 16 15 0 8 -2 15 -4 15
-2 0 -9 -7 -16 -15z"/>
<path d="M4820 7270 c0 -5 5 -10 10 -10 6 0 10 5 10 10 0 6 -4 10 -10 10 -5 0
-10 -4 -10 -10z"/>
<path d="M7175 7270 c3 -5 8 -10 11 -10 2 0 4 5 4 10 0 6 -5 10 -11 10 -5 0
-7 -4 -4 -10z"/>
<path d="M4566 7261 c-7 -11 9 -57 23 -66 17 -10 13 44 -3 61 -8 8 -17 10 -20
5z"/>
<path d="M7343 7253 c-15 -5 -17 -33 -3 -33 6 0 10 -5 10 -11 0 -15 47 -59 63
-59 7 0 4 5 -5 11 -10 5 -18 18 -18 29 0 10 -5 20 -11 22 -5 2 -11 11 -13 20
-3 22 -8 26 -23 21z"/>
<path d="M7061 7241 c-8 -5 -9 -11 -3 -15 5 -3 15 1 22 9 14 16 3 20 -19 6z"/>
<path d="M7112 7243 c-6 -2 -10 -9 -6 -14 8 -14 21 -11 28 6 6 15 1 17 -22 8z"/>
<path d="M4353 7140 c-2 -30 2 -42 17 -50 22 -12 31 -13 28 -2 -1 4 4 18 11
31 7 13 8 21 3 17 -6 -3 -19 5 -30 19 -11 14 -21 25 -23 25 -2 0 -5 -18 -6
-40z"/>
<path d="M4418 7164 c15 -28 41 -49 50 -39 4 4 1 10 -6 12 -7 3 -22 15 -34 27
-20 21 -20 21 -10 0z"/>
<path d="M7313 7143 c-41 -8 -19 -33 28 -33 10 0 19 -6 19 -12 0 -9 4 -8 10 2
14 21 12 30 -5 30 -8 0 -15 5 -15 10 0 6 -3 9 -7 9 -5 -1 -18 -4 -30 -6z"/>
<path d="M7417 7113 c-12 -11 -8 -23 8 -23 8 0 15 7 15 15 0 16 -12 20 -23 8z"/>
<path d="M7457 7103 c-13 -12 -7 -23 13 -23 13 0 18 5 14 15 -7 16 -17 19 -27
8z"/>
<path d="M4060 7076 c0 -3 7 -12 16 -20 19 -20 40 -11 23 10 -10 13 -39 20
-39 10z"/>
<path d="M7594 7033 c-14 -23 -7 -43 16 -43 27 0 41 22 26 43 -17 22 -28 22
-42 0z"/>
<path d="M7680 6981 c0 -5 5 -13 10 -16 6 -3 10 -2 10 4 0 5 -4 13 -10 16 -5
3 -10 2 -10 -4z"/>
<path d="M3810 6920 c0 -5 6 -10 14 -10 8 0 23 -3 33 -7 16 -6 16 -5 4 10 -15
18 -51 23 -51 7z"/>
<path d="M7740 6900 c0 -5 5 -10 10 -10 6 0 10 5 10 10 0 6 -4 10 -10 10 -5 0
-10 -4 -10 -10z"/>
<path d="M3762 6872 c-17 -3 -21 -8 -17 -22 5 -16 -1 -20 -32 -25 -59 -11
-101 -23 -79 -24 20 -1 20 -1 0 -16 -19 -14 -19 -14 2 -15 29 0 102 26 117 43
53 57 54 67 9 59z"/>
<path d="M3642 6849 c2 -6 8 -10 13 -10 5 0 11 4 13 10 2 6 -4 11 -13 11 -9 0
-15 -5 -13 -11z"/>
<path d="M3575 6750 c-8 -14 35 -49 52 -43 18 7 16 16 -7 36 -23 19 -36 21
-45 7z"/>
<path d="M8010 6750 c0 -5 7 -7 15 -4 8 4 15 8 15 10 0 2 -7 4 -15 4 -8 0 -15
-4 -15 -10z"/>
<path d="M3494 6665 c-9 -23 0 -28 36 -20 37 8 35 29 -3 33 -18 2 -29 -2 -33
-13z"/>
<path d="M8265 6660 c-10 -11 -16 -22 -13 -25 9 -9 33 4 46 25 17 28 -8 27
-33 0z"/>
<path d="M8385 6430 c3 -5 10 -10 16 -10 5 0 9 5 9 10 0 6 -7 10 -16 10 -8 0
-12 -4 -9 -10z"/>
<path d="M8607 6223 c-4 -3 -7 -11 -7 -17 0 -6 5 -5 12 2 6 6 9 14 7 17 -3 3
-9 2 -12 -2z"/>
<path d="M8635 6180 c3 -5 14 -10 23 -10 15 0 15 2 2 10 -20 13 -33 13 -25 0z"/>
<path d="M2870 6110 c0 -5 5 -10 10 -10 6 0 10 5 10 10 0 6 -4 10 -10 10 -5 0
-10 -4 -10 -10z"/>
<path d="M2932 6064 c14 -14 21 -15 30 -6 8 8 9 12 1 12 -6 0 -20 3 -30 6 -17
7 -17 6 -1 -12z"/>
<path d="M2698 5863 c7 -3 16 -2 19 1 4 3 -2 6 -13 5 -11 0 -14 -3 -6 -6z"/>
<path d="M8973 5858 c21 -7 32 -7 40 1 8 8 0 11 -28 10 -40 -1 -40 -1 -12 -11z"/>
<path d="M2624 5773 c-4 -16 -14 -33 -23 -40 -14 -11 -13 -12 7 -13 51 0 80
38 50 68 -18 18 -27 15 -34 -15z"/>
<path d="M9030 5630 c0 -5 5 -10 10 -10 6 0 10 5 10 10 0 6 -4 10 -10 10 -5 0
-10 -4 -10 -10z"/>
<path d="M2512 5513 c-1 -14 -9 -34 -17 -43 -8 -9 -15 -21 -15 -27 0 -6 -8 -9
-19 -6 -26 7 -36 -14 -11 -22 20 -7 28 -25 10 -25 -5 0 -10 -9 -10 -20 0 -11
5 -20 11 -20 6 0 9 7 5 15 -3 9 0 15 9 15 8 0 15 5 15 11 0 7 8 19 18 28 18
17 41 89 34 109 -7 22 -28 12 -30 -15z"/>
<path d="M9464 4815 c8 -8 19 -15 24 -15 6 0 12 7 16 15 4 11 -2 15 -25 15
-27 0 -29 -2 -15 -15z"/>
<path d="M2265 4780 c-11 -18 26 -23 43 -6 15 15 14 16 -10 16 -15 0 -30 -5
-33 -10z"/>
<path d="M9520 4757 c0 -15 4 -27 9 -27 17 0 19 15 5 35 -13 18 -14 18 -14 -8z"/>
<path d="M9520 4620 c0 -5 5 -10 10 -10 6 0 10 5 10 10 0 6 -4 10 -10 10 -5 0
-10 -4 -10 -10z"/>
<path d="M9550 4365 c0 -9 5 -15 11 -13 6 2 11 8 11 13 0 5 -5 11 -11 13 -6 2
-11 -4 -11 -13z"/>
<path d="M9542 4310 c-11 -18 -10 -20 13 -20 23 0 24 2 15 20 -6 11 -12 20
-13 20 -1 0 -8 -9 -15 -20z"/>
<path d="M9530 3980 c0 -5 5 -10 11 -10 5 0 7 5 4 10 -3 6 -8 10 -11 10 -2 0
-4 -4 -4 -10z"/>
<path d="M2190 3720 c-12 -8 -9 -10 13 -10 15 0 27 5 27 10 0 13 -20 13 -40 0z"/>
<path d="M9640 3700 c-13 -8 -13 -10 2 -10 9 0 20 5 23 10 8 13 -5 13 -25 0z"/>
<path d="M2175 3610 c-4 -6 7 -10 24 -10 17 0 31 5 31 10 0 6 -11 10 -24 10
-14 0 -28 -4 -31 -10z"/>
<path d="M9590 3605 c0 -8 9 -15 19 -15 10 0 21 7 25 15 4 11 -1 15 -19 15
-16 0 -25 -6 -25 -15z"/>
<path d="M2215 3460 c3 -5 8 -10 11 -10 2 0 4 5 4 10 0 6 -5 10 -11 10 -5 0
-7 -4 -4 -10z"/>
<path d="M2174 3335 c8 -8 17 -15 19 -15 3 0 7 7 11 15 4 11 -2 15 -20 15 -23
0 -24 -2 -10 -15z"/>
<path d="M2170 3275 c0 -8 5 -15 10 -15 6 0 10 7 10 15 0 8 -4 15 -10 15 -5 0
-10 -7 -10 -15z"/>
<path d="M2200 3020 c0 -5 5 -10 10 -10 6 0 10 5 10 10 0 6 -4 10 -10 10 -5 0
-10 -4 -10 -10z"/>
<path d="M2200 2896 c0 -8 5 -18 10 -21 6 -3 10 3 10 14 0 12 -4 21 -10 21 -5
0 -10 -6 -10 -14z"/>
<path d="M2246 2834 c-9 -23 -8 -24 25 -24 32 0 32 13 -1 30 -13 7 -19 6 -24
-6z"/>
<path d="M9360 2629 c0 -5 5 -7 10 -4 6 3 10 8 10 11 0 2 -4 4 -10 4 -5 0 -10
-5 -10 -11z"/>
<path d="M9271 2283 c3 -18 -14 -53 -26 -53 -14 0 -35 -42 -35 -70 0 -10 -5
-22 -10 -25 -8 -5 -7 -11 1 -21 18 -22 26 -17 33 22 4 19 14 38 22 41 8 3 13
12 10 20 -4 10 -1 13 12 9 9 -3 23 -2 31 3 11 7 9 10 -8 16 -16 5 -20 12 -16
23 11 28 10 34 -3 39 -7 3 -12 1 -11 -4z"/>
<path d="M2460 2200 c-9 -6 -10 -10 -3 -10 6 0 15 5 18 10 8 12 4 12 -15 0z"/>
<path d="M9160 2010 c0 -10 -8 -24 -17 -29 -13 -7 -14 -10 -4 -11 9 0 6 -7 -9
-20 -15 -13 -18 -20 -9 -20 8 -1 -1 -7 -18 -15 -18 -8 -33 -16 -33 -19 0 -13
24 -56 31 -56 13 0 29 33 29 60 0 6 7 10 15 10 16 0 37 32 33 52 -2 9 8 12 35
11 44 -3 45 2 11 33 -31 30 -64 32 -64 4z"/>
<path d="M2750 1780 c14 -4 32 -8 40 -9 13 -1 13 0 0 9 -8 5 -26 9 -40 9 l-25
-1 25 -8z"/>
<path d="M9030 1780 c0 -5 5 -10 10 -10 6 0 10 5 10 10 0 6 -4 10 -10 10 -5 0
-10 -4 -10 -10z"/>
<path d="M8780 1582 c0 -5 9 -12 21 -15 13 -3 19 -1 16 6 -5 15 -37 22 -37 9z"/>
<path d="M3080 1470 c0 -5 7 -10 16 -10 8 0 12 5 9 10 -3 6 -10 10 -16 10 -5
0 -9 -4 -9 -10z"/>
<path d="M3335 1210 c-3 -5 3 -10 15 -10 12 0 18 5 15 10 -3 6 -10 10 -15 10
-5 0 -12 -4 -15 -10z"/>
<path d="M8207 994 c-31 -17 -28 -34 7 -34 27 0 51 24 41 40 -8 13 -14 12 -48
-6z"/>
<path d="M3610 960 c0 -5 7 -7 15 -4 8 4 15 8 15 10 0 2 -7 4 -15 4 -8 0 -15
-4 -15 -10z"/>
<path d="M8115 930 c-3 -5 3 -18 13 -28 14 -14 24 -17 36 -10 15 8 14 11 -8
29 -28 22 -32 23 -41 9z"/>
<path d="M3510 923 c-20 -5 -43 -53 -26 -53 16 0 49 36 45 47 -2 5 -11 7 -19
6z"/>
<path d="M8030 854 c-35 -15 -87 -70 -77 -80 10 -10 48 7 44 19 -5 15 45 37
87 38 17 0 40 5 51 10 17 8 15 8 -7 4 -28 -5 -39 9 -15 18 6 3 -1 6 -18 6 -16
0 -46 -7 -65 -15z"/>
<path d="M8080 795 c0 -8 5 -15 10 -15 6 0 10 7 10 15 0 8 -4 15 -10 15 -5 0
-10 -7 -10 -15z"/>
<path d="M7895 724 c20 -15 35 -15 38 0 1 5 -11 10 -28 12 -28 3 -29 2 -10
-12z"/>
<path d="M4050 665 c7 -9 15 -13 17 -11 7 7 -7 26 -19 26 -6 0 -6 -6 2 -15z"/>
<path d="M4105 640 c-4 -6 -2 -17 4 -24 6 -7 8 -16 4 -19 -3 -4 1 -7 10 -7 19
0 41 35 32 50 -8 13 -42 13 -50 0z"/>
<path d="M7594 624 c3 -9 6 -18 6 -20 0 -2 7 -4 15 -4 18 0 19 12 3 28 -17 17
-31 15 -24 -4z"/>
<path d="M4263 555 c-3 -9 -3 -18 0 -21 9 -9 27 6 27 22 0 19 -19 18 -27 -1z"/>
<path d="M4305 542 c-14 -14 -1 -20 30 -15 30 5 34 3 29 -11 -4 -12 -2 -15 9
-10 8 3 18 1 21 -4 7 -12 62 1 59 14 -1 5 -13 10 -25 12 -13 2 -30 6 -38 9
-21 7 -79 11 -85 5z"/>
<path d="M4220 482 c0 -19 26 -62 38 -62 17 0 15 21 -4 48 -15 22 -34 30 -34
14z"/>
<path d="M4550 449 c0 -5 5 -7 10 -4 6 3 10 8 10 11 0 2 -4 4 -10 4 -5 0 -10
-5 -10 -11z"/>
<path d="M7168 428 c6 -25 27 -50 35 -42 10 10 -10 59 -25 62 -13 2 -15 -2
-10 -20z"/>
<path d="M4665 410 c-3 -5 1 -10 9 -10 9 0 16 5 16 10 0 6 -4 10 -9 10 -6 0
-13 -4 -16 -10z"/>
<path d="M4773 393 c-16 -6 -17 -33 -3 -33 11 0 26 28 19 34 -2 2 -10 1 -16
-1z"/>
<path d="M6908 373 c7 -3 16 -2 19 1 4 3 -2 6 -13 5 -11 0 -14 -3 -6 -6z"/>
<path d="M4840 350 c0 -5 7 -10 15 -10 8 0 15 5 15 10 0 6 -7 10 -15 10 -8 0
-15 -4 -15 -10z"/>
<path d="M4887 346 c-7 -19 0 -25 24 -19 10 3 19 12 19 19 0 18 -36 18 -43 0z"/>
<path d="M4950 330 c-13 -8 -13 -10 2 -10 9 0 20 5 23 10 8 13 -5 13 -25 0z"/>
<path d="M4960 270 c0 -5 5 -10 10 -10 6 0 10 5 10 10 0 6 -4 10 -10 10 -5 0
-10 -4 -10 -10z"/>
<path d="M6852 250 c2 -30 12 -38 23 -20 8 13 -4 50 -16 50 -5 0 -8 -13 -7
-30z"/>
<path d="M6795 260 c-3 -5 -1 -18 4 -27 9 -16 10 -14 11 10 0 28 -5 34 -15 17z"/>
<path d="M5181 246 c-8 -9 -8 -16 -2 -20 6 -4 15 3 21 14 12 23 -2 27 -19 6z"/>
<path d="M5240 244 c0 -9 5 -14 12 -12 18 6 21 28 4 28 -9 0 -16 -7 -16 -16z"/>
<path d="M5420 249 c0 -5 5 -7 10 -4 6 3 10 8 10 11 0 2 -4 4 -10 4 -5 0 -10
-5 -10 -11z"/>
<path d="M6340 235 c-13 -14 -20 -31 -17 -39 4 -9 2 -16 -3 -16 -6 0 -10 -4
-10 -10 0 -5 7 -10 15 -10 8 0 15 5 15 10 0 6 6 10 14 10 8 0 17 14 21 30 6
28 25 43 25 20 0 -5 7 -10 15 -10 16 0 21 16 8 23 -32 18 -61 15 -83 -8z"/>
<path d="M6267 243 c-12 -12 -7 -22 8 -17 8 4 15 10 15 15 0 11 -14 12 -23 2z"/>
<path d="M5340 220 c-8 -5 -11 -12 -7 -16 4 -4 13 -2 19 4 15 15 7 24 -12 12z"/>
<path d="M5095 204 c22 -16 35 -18 35 -5 0 5 -12 11 -27 14 -26 5 -26 4 -8 -9z"/>
<path d="M5435 210 c4 -6 11 -8 16 -5 14 9 11 15 -7 15 -8 0 -12 -5 -9 -10z"/>
<path d="M5740 185 c-12 -32 -12 -35 -2 -35 14 0 33 48 22 55 -6 4 -15 -6 -20
-20z"/>
<path d="M5486 185 c-3 -8 -1 -15 4 -15 6 0 10 7 10 15 0 8 -2 15 -4 15 -2 0
-6 -7 -10 -15z"/>
<path d="M5580 180 c-8 -16 -8 -20 4 -20 9 0 20 9 26 20 8 16 8 20 -4 20 -9 0
-20 -9 -26 -20z"/>
<path d="M6250 190 c-8 -5 -11 -12 -8 -16 10 -9 38 3 38 16 0 12 -10 13 -30 0z"/>
<path d="M5685 170 c-3 -5 -1 -10 4 -10 6 0 11 5 11 10 0 6 -2 10 -4 10 -3 0
-8 -4 -11 -10z"/>
<path d="M5787 173 c-4 -3 -7 -11 -7 -17 0 -6 5 -5 12 2 6 6 9 14 7 17 -3 3
-9 2 -12 -2z"/>
<path d="M6030 155 c-11 -27 8 -46 22 -22 7 13 17 17 34 13 14 -4 24 -2 24 4
0 5 0 13 0 17 0 4 -16 8 -36 8 -27 0 -38 -5 -44 -20z"/>
<path d="M5930 134 c0 -17 22 -14 28 4 2 7 -3 12 -12 12 -9 0 -16 -7 -16 -16z"/>
<path d="M5090 130 c0 -5 5 -10 10 -10 6 0 10 5 10 10 0 6 -4 10 -10 10 -5 0
-10 -4 -10 -10z"/>
</g>
</svg>
